<?xml version="1.0" encoding="utf-8"?>
<!-- Generator: Adobe Illustrator 26.0.1, SVG Export Plug-In . SVG Version: 6.00 Build 0)  -->
<svg version="1.1" id="Layer_1" xmlns="http://www.w3.org/2000/svg" xmlns:xlink="http://www.w3.org/1999/xlink" x="0px" y="0px"
	 viewBox="0 0 868.21 680.21" style="enable-background:new 0 0 868.21 680.21;" xml:space="preserve">
<style type="text/css">
	.st0{fill:#84FFDF;}
	.st1{fill:#FFFFFF;}
</style>
<circle class="st0" cx="397.91" cy="277.5" r="260.82"/>
<path class="st1" d="M730.84,465.51c-1.49-4.47-4.36-8.05-7.11-11.79c-4.2-5.7-8.07-11.65-11.77-17.69
	c-7.11-11.63-14.59-23.47-16.39-37.23c6.88-2.5,11.79-9.08,11.79-16.82c0-8.71-6.22-15.97-14.46-17.58
	c-0.67-6.27-1.45-12.52-2.34-18.76c-3.48-24.27-8.71-48.33-16.14-71.71c-4.16-13.08-9.03-25.93-14.66-38.44
	c-1.09-2.42-2.21-4.83-3.36-7.24c4.19-3.28,6.89-8.37,6.89-14.1c0-9.9-8.02-17.92-17.92-17.92c-2.5,0-4.88,0.52-7.04,1.44
	c-22.87-30.12-56.75-49.59-92.58-60.63c-30.93-9.52-64.33-13.92-96.68-12.01c-0.06,0-0.12,0.01-0.19,0.01
	c-2.77-6.31-9.07-10.73-16.41-10.73c-9.26,0-16.88,7.03-17.82,16.04c-16.06,3.84-31.76,9.41-46.72,15.93
	c-43.37,18.92-81.64,48.49-112.51,84.22c-1.8,2.08-3.59,4.18-5.37,6.3c-1.33-0.31-2.71-0.5-4.13-0.5c-9.9,0-17.92,8.02-17.92,17.92
	c0,9.9,8.02,17.92,17.92,17.92c9.9,0,17.92-8.02,17.92-17.92c0-0.52-0.03-1.04-0.08-1.55c2.23-1.18,4.47-2.35,6.73-3.49
	c14.99-7.62,30.4-14.4,46.26-19.99c19.65-6.93,39.95-11.98,60.57-14.59c1.32,5,4.73,9.14,9.25,11.42
	c-4.39,23.36-4.2,47.49,1.74,70.58c7.3,28.42,22.99,53.9,42.9,75.23c0.18,0.19,0.37,0.38,0.55,0.57c-1.8,2.8-2.86,6.12-2.86,9.69
	c0,4.72,1.84,9,4.82,12.2c-7.79,14.72-14.77,29.87-20.86,45.37c-10.9,27.76-19.07,56.8-22.49,86.48c-1.8,15.62-2.58,32.44,0.29,48.3
	c-5.28,3.12-8.84,8.85-8.84,15.43c0,9.9,8.02,17.92,17.92,17.92c1.73,0,3.4-0.26,4.98-0.72c1.16,1.29,2.39,2.52,3.73,3.64
	c7.56,6.3,17.01,10.83,25.79,15.13c11.91,5.84,24.33,10.66,37.09,14.26c20.07,5.67,40.84,8.26,61.65,8.98
	c2.14,7.51,9.03,13.01,17.22,13.01c8.3,0,15.25-5.65,17.29-13.3c6.4-0.28,12.79-0.65,19.18-1.08c13.25-0.89,26.75-1.39,39.8-4
	c14.87-2.97,31.01-9.61,36.99-24.68c3.85-9.7,2.21-20.38-0.24-30.2c-0.46-1.84-0.96-3.68-1.38-5.53c-0.17-0.75-0.32-1.5-0.47-2.25
	c-0.01-0.07-0.01-0.06-0.02-0.11c-0.11-1.7-0.08-3.27,0.56-4.88c0.87-2.21,2.55-4.04,4.39-5.51c2.1-1.67,4.46-2.61,5.75-5.12
	c2.2-4.28-0.14-7.84-3.05-10.86c-0.92-0.95-5.28-4.52-4.89-5.57c0.22-0.58,2.7-1.59,3.18-1.88c1.59-0.94,3.18-1.87,4.77-2.81
	c3.86-2.28,6.32-6.26,4.33-10.75c-1.06-2.39-4.09-4.73-5.31-6.43c-3.29-4.57-4.62-9.6-2.14-15.01c1.93-4.22,5.44-7.63,9.02-10.48
	c2.5-2,5.22-3.74,7.97-5.37c3.23-1.91,6.29-2.45,9.92-3.28C708.31,490.18,737.16,484.53,730.84,465.51z M667.34,276.98
	c7.26,23.06,12.39,46.78,15.82,70.7c0.8,5.62,1.49,11.25,2.08,16.89c-1.91,0.46-3.7,1.22-5.32,2.24
	c-29.2-36.07-61.44-69.81-98.45-97.93c-2.44-1.85-4.91-3.66-7.39-5.44c0.75-1.97,1.18-4.11,1.18-6.34c0-2.52-0.52-4.91-1.46-7.09
	c6.27-3.98,12.67-7.77,19.23-11.29c11.75-6.3,23.91-11.79,36.37-16.49c2.96,5.83,8.99,9.83,15.97,9.83c1.5,0,2.95-0.2,4.34-0.55
	C656.86,246.17,662.52,261.68,667.34,276.98z M491.11,133.86c35.79,3.68,71.95,13.75,102.48,33.21
	c14.71,9.38,27.99,21.14,38.53,35.06c-2.89,3.18-4.66,7.39-4.66,12.03c0,0.23,0.03,0.45,0.03,0.67
	c-20.34,7.66-39.78,17.44-58.14,29.02c-3.18-2.88-7.38-4.65-12.01-4.65c-4.86,0-9.25,1.94-12.48,5.08
	c-22.19-13.06-45.82-23.61-70.69-30.43c-20.38-5.59-41.32-8.47-62.33-8.78c-1.31-4.54-4.36-8.33-8.39-10.62
	c6.04-15.9,14.02-31.12,23.35-45.22c1.78,0.6,3.69,0.93,5.67,0.93c9.76,0,17.67-7.8,17.9-17.5
	C463.94,131.93,477.6,132.47,491.11,133.86z M279.51,236.26c-6.1,2.85-12.13,5.86-18.1,8.98c-1.11-1.91-2.55-3.6-4.26-4.97
	c1.66-1.96,2.98-3.49,3.34-3.91c16.61-19.29,35.32-36.86,55.97-51.78c29.76-21.49,63.41-37.7,99.11-46.45
	c0.96,2.76,2.58,5.2,4.66,7.16c-9.71,14.63-17.88,30.42-24.04,46.89c-0.52-0.04-1.03-0.08-1.56-0.08c-8.83,0-16.15,6.39-17.63,14.79
	c-1.26,0.15-2.52,0.3-3.78,0.47C340.64,211.83,309.23,222.37,279.51,236.26z M403.68,317.54c-10.14-22.76-14.01-47.84-11.99-72.63
	c0.47-5.7,1.25-11.37,2.29-17c0.22,0.01,0.43,0.03,0.65,0.03c9.01,0,16.44-6.66,17.71-15.31c0.72,0.01,1.43,0.01,2.15,0.03
	c36.37,0.92,72.02,10.5,104.65,26.43c7.32,3.58,14.48,7.45,21.49,11.56c-0.77,2-1.22,4.17-1.22,6.45c0,2.4,0.48,4.69,1.34,6.78
	c-0.54,0.43-1.09,0.84-1.64,1.27c-29.49,23.38-55.09,51.46-76.7,82.22c-3.98,5.66-7.79,11.44-11.48,17.29
	c-1.32-0.31-2.7-0.49-4.12-0.49c-3.47,0-6.69,1-9.44,2.71C423.7,352.31,411.95,336.11,403.68,317.54z M435.67,618
	c-6.25-3.16-12.34-6.61-18.29-10.31c-0.94-0.59-1.87-1.19-2.77-1.83c-0.15-0.11-0.18-0.13-0.23-0.16c-0.03-0.02-0.04-0.04-0.17-0.15
	c-0.39-0.32-0.77-0.64-1.14-0.97c-0.48-0.43-0.94-0.89-1.4-1.34c3.68-3.28,6.01-8.04,6.01-13.36c0-9.9-8.02-17.92-17.92-17.92
	c-0.54,0-1.07,0.03-1.59,0.08c-0.68-4.2-1.09-8.42-1.33-12.76c-1.41-25.47,3.02-51.15,9.59-75.67
	c7.89-29.48,19.41-57.95,33.65-84.92c2.09,0.85,4.36,1.33,6.76,1.33c4.05,0,7.77-1.36,10.77-3.62
	c20.42,17.05,42.57,32.04,63.78,48.1c3.65,2.76,8.2,6.41,12.06,10.05c1.82,1.72,3.58,3.51,5.25,5.39c0.74,0.83,1.45,1.69,2.15,2.55
	c0.78,0.96,0.13,0.13,0.69,0.89c0.36,0.48,0.71,0.97,1.06,1.46c6.07,8.64,8.89,17.35,10.64,28.08c2.43,14.9,2.04,32.06,1.33,47.79
	c-1.17,26.16-3.73,52.27-6.29,78.32c-0.24,2.5-0.5,4.99-0.75,7.48c-7.7,1.16-13.78,7.21-14.99,14.9
	c-20.32-0.74-40.53-3.33-60.13-8.96C459.73,628.79,447.44,623.95,435.67,618z M723.54,472.83c-1.15,2.39-3.83,4.08-6.33,5.4
	c-4.07,2.14-8.54,3.51-12.96,4.76c-2.78,0.79-5.59,1.49-8.4,2.15c-3.26,0.77-6.91,1.11-9.99,2.44c-5.64,2.45-11.18,6.57-15.71,10.7
	c-3.26,2.97-6.23,6.49-8.08,10.52c-2.91,6.34-2.63,13.19,0.6,19.35c1.26,2.4,2.95,4.6,4.79,6.58c0.42,0.45,2.05,1.63,1.96,2.23
	c-0.06,0.43-2.44,1.46-2.78,1.66c-2.52,1.49-5.67,2.8-7.82,4.83c-3.68,3.47-2.86,8.5,0.29,11.92c1.13,1.22,2.3,2.39,3.46,3.59
	c0.51,0.53,2.61,2.06,2.69,2.79c0.07,0.65-3.39,2.59-3.99,3.07c-1.95,1.57-3.68,3.42-5.02,5.55c-3.58,5.7-2.65,11.69-1.12,17.75
	c2.27,8.95,4.37,17.51,1.89,26.13c-3.92,13.64-19.37,19.43-32.58,22.08c-12.71,2.54-25.92,2.94-38.83,3.79
	c-5.92,0.39-11.85,0.7-17.78,0.93c-1.19-6.76-6.17-12.2-12.67-14.07c2.36-23.43,4.62-46.87,6.17-70.36
	c1.19-18.06,2.19-36.33,0.68-54.4c-0.97-11.62-3.08-23.24-8.32-33.76c-4.45-8.94-11.22-16.42-18.75-22.88
	c-9.73-8.35-20.42-15.56-30.82-23.03c-14.2-10.2-28.1-20.78-41.5-32.02c1.35-2.51,2.11-5.39,2.11-8.44c0-5.71-2.68-10.79-6.85-14.07
	c13.73-21.64,29.36-42.07,46.9-60.76c12.51-13.34,25.99-25.75,40.34-37.05c3.2,2.98,7.48,4.82,12.2,4.82
	c4.88,0,9.29-1.95,12.52-5.11c22.06,15.95,42.53,34.17,61.53,53.6c15.15,15.49,29.46,31.79,43.08,48.63
	c-1.86,2.82-2.95,6.2-2.95,9.84c0,9.42,7.27,17.12,16.5,17.85c1.86,13.43,8.18,24.79,15.03,36.31c3.53,5.93,7.21,11.78,11.16,17.44
	c2.91,4.18,6.7,8.15,8.77,12.85C724.05,468.81,724.33,471.19,723.54,472.83z"/>
</svg>
